<svg width="162" height="53" viewBox="0 0 162 53" fill="none" xmlns="http://www.w3.org/2000/svg">
<path d="M23.7294 44.6019C19.7969 44.0263 16.1551 42.1972 13.3451 39.3865C10.5351 36.5759 8.70696 32.9336 8.1323 29.001H0V26.3652V42.1225C0.00101099 44.9366 1.11935 47.6351 3.1092 49.625C5.09905 51.6148 7.79758 52.7332 10.6117 52.7342H23.7294V44.6019Z" fill="#DF1448"/>
<path d="M44.6052 29.001C44.0304 32.9342 42.2017 36.5769 39.3909 39.3876C36.5802 42.1983 32.9375 44.027 29.0043 44.6019V52.7342H42.1297C44.9441 52.7342 47.6432 51.6162 49.6333 49.6261C51.6233 47.636 52.7413 44.9369 52.7413 42.1225V29.001H44.6052Z" fill="#EFAD00"/>
<path d="M0 23.7294H8.1323C8.70696 19.7968 10.5351 16.1545 13.3451 13.3438C16.1551 10.5331 19.7969 8.7041 23.7294 8.12848V0H10.6117C7.79727 0 5.09816 1.11801 3.10808 3.10809C1.11801 5.09816 0 7.79727 0 10.6117V26.3651V23.7294Z" fill="#3BAA61"/>
<path d="M29.0043 8.12849C32.9375 8.70335 36.5802 10.5321 39.3909 13.3428C42.2017 16.1535 44.0304 19.7962 44.6052 23.7294H52.7337V10.6117C52.7342 9.21862 52.4603 7.83912 51.9277 6.55193C51.3951 5.26473 50.6141 4.09505 49.6295 3.10966C48.6448 2.12428 47.4757 1.34249 46.1888 0.808936C44.902 0.275379 43.5227 0.000500824 42.1297 0H29.0043V8.12849Z" fill="#33B9F2"/>
<path d="M26.2354 31.6325C25.3106 31.6337 24.4017 31.3913 23.6003 30.9298C22.7988 30.4682 22.133 29.8038 21.6697 29.0034C21.2065 28.2029 20.9621 27.2946 20.9613 26.3697C20.9604 25.4449 21.2031 24.5361 21.6649 23.7348C22.1266 22.9334 22.7912 22.2678 23.5918 21.8048C24.3925 21.3418 25.3009 21.0977 26.2257 21.0972C27.1506 21.0966 28.0593 21.3395 28.8604 21.8015C29.6616 22.2635 30.3271 22.9283 30.7898 23.7291H39.2845C38.6313 20.5282 36.8128 17.6838 34.1816 15.7474C31.5504 13.8111 28.2939 12.9207 25.0435 13.249C21.7932 13.5773 18.7805 15.1007 16.5895 17.5241C14.3986 19.9474 13.1855 23.0979 13.1855 26.3648C13.1855 29.6318 14.3986 32.7823 16.5895 35.2056C18.7805 37.6289 21.7932 39.1524 25.0435 39.4807C28.2939 39.8089 31.5504 38.9186 34.1816 36.9823C36.8128 35.0459 38.6313 32.2015 39.2845 29.0006H30.7898C30.3294 29.8012 29.6658 30.4662 28.8661 30.9283C28.0665 31.3904 27.159 31.6333 26.2354 31.6325Z" fill="white"/>
<path d="M76.168 22C80.224 22 83.392 19.456 84.064 15.496H79.504C79.168 16.984 77.944 17.944 76.168 17.944C73.576 17.944 72.016 16.12 72.016 13.216C72.016 10.312 73.576 8.512 76.168 8.512C77.944 8.512 79.144 9.448 79.504 10.936H84.088C83.392 6.976 80.224 4.432 76.168 4.432C71.344 4.432 67.648 7.816 67.648 13.216C67.648 18.616 71.344 22 76.168 22Z" fill="white"/>
<path d="M90.889 9.232C87.385 9.232 85.249 11.92 85.225 15.616C85.249 19.312 87.385 22 90.889 22C91.993 22 93.529 21.544 94.369 20.44L94.465 21.616H98.449V9.616H94.441L94.369 10.792C93.529 9.688 91.993 9.232 90.889 9.232ZM91.993 18.64C90.457 18.64 89.089 17.608 89.089 15.616C89.089 13.624 90.457 12.592 91.993 12.592C93.505 12.592 94.825 13.744 94.849 15.616C94.825 17.488 93.505 18.64 91.993 18.64Z" fill="white"/>
<path d="M108.764 22C112.268 22 114.404 19.312 114.428 15.616C114.404 11.92 112.268 9.232 108.764 9.232C107.636 9.232 106.124 9.688 105.284 10.792L105.188 9.616H101.18V26.416H105.284V20.44C106.124 21.544 107.636 22 108.764 22ZM107.66 12.592C109.172 12.592 110.564 13.624 110.564 15.616C110.564 17.608 109.172 18.64 107.66 18.64C106.148 18.64 104.804 17.488 104.804 15.616C104.804 13.744 106.148 12.592 107.66 12.592Z" fill="white"/>
<path d="M116.199 6.16C116.199 7.384 117.159 8.32 118.359 8.32C119.559 8.32 120.543 7.384 120.543 6.16C120.543 4.936 119.559 4 118.359 4C117.159 4 116.199 4.936 116.199 6.16ZM120.423 9.616H116.319V21.616H120.423V9.616Z" fill="white"/>
<path d="M77.248 40.28H73.768L75.52 34.976L77.248 40.28ZM73.528 29.816L67.048 46.616H71.68L72.616 43.76H78.4L79.36 46.616H83.992L77.512 29.816H73.528Z" fill="white"/>
<path d="M91.243 49.328C90.523 49.328 89.611 49.112 89.299 48.224H85.339C85.819 51.2 88.267 52.496 91.363 52.496C94.771 52.496 97.699 50.216 97.699 46.736V34.616H93.691L93.619 35.792C92.779 34.688 91.243 34.232 90.139 34.232C86.635 34.232 84.499 36.92 84.475 40.616C84.499 44.312 86.635 47 90.139 47C91.243 47 92.779 46.544 93.619 45.44V46.952C93.619 48.68 92.323 49.328 91.243 49.328ZM91.243 37.592C92.755 37.592 94.075 38.744 94.099 40.616C94.075 42.488 92.755 43.64 91.243 43.64C89.707 43.64 88.339 42.608 88.339 40.616C88.339 38.624 89.707 37.592 91.243 37.592Z" fill="white"/>
<path d="M105.878 34.232C102.374 34.232 99.6625 36.632 99.6625 40.616C99.6625 44.6 102.374 47 105.878 47C108.614 47 110.774 45.584 111.734 42.872H107.918C107.318 43.88 106.046 43.904 105.71 43.904C105.206 43.904 103.502 43.544 103.406 41.384H111.902C111.902 41.144 111.926 40.832 111.926 40.592C111.926 36.728 109.43 34.232 105.878 34.232ZM105.854 37.256C106.238 37.256 107.822 37.424 108.158 39.104H103.55C103.886 37.448 105.494 37.256 105.854 37.256Z" fill="white"/>
<path d="M120.966 34.232C119.478 34.232 118.422 34.832 117.87 35.792L117.798 34.616H113.766V46.616H117.87V40.928C117.87 39.512 118.038 37.808 119.646 37.808C120.702 37.808 121.35 38.336 121.35 39.608V46.616H125.454V39.08C125.454 35.72 123.654 34.232 120.966 34.232Z" fill="white"/>
<path d="M133.557 43.376C133.101 43.376 131.157 43.16 131.157 40.616C131.157 38.072 133.101 37.904 133.557 37.904C134.061 37.904 135.357 38.072 135.693 39.488H139.677C139.197 36.104 136.773 34.232 133.653 34.232C130.125 34.232 127.389 36.632 127.389 40.616C127.389 44.6 130.125 47 133.653 47C136.773 47 139.221 44.984 139.677 41.84H135.717C135.405 43.112 134.205 43.376 133.557 43.376Z" fill="white"/>
<path d="M146.703 41.528L144.567 34.616H140.079L144.567 46.136C144.015 47.72 143.103 47.96 141.519 47.96V51.368C144.975 51.368 147.015 51.032 148.743 46.568L153.327 34.616H148.839L146.703 41.528Z" fill="white"/>
</svg>
